<svg xmlns="http://www.w3.org/2000/svg" width="96" height="96" viewBox="0 0 96 96" role="img" aria-label="schedule">
  <rect width="96" height="96" rx="18" fill="#eef3f2"/>
  <path d="M25 26h46a5 5 0 0 1 5 5v42a5 5 0 0 1-5 5H25a5 5 0 0 1-5-5V31a5 5 0 0 1 5-5Z" fill="#fff" stroke="#0f766e" stroke-width="4"/>
  <path d="M20 40h56" stroke="#0f766e" stroke-width="4"/>
  <path d="M33 20v12M63 20v12" stroke="#b45309" stroke-width="5" stroke-linecap="round"/>
  <path d="M32 51h11M52 51h11M32 63h11M52 63h11" stroke="#2f5f9f" stroke-width="5" stroke-linecap="round"/>
</svg>
